<mxfile host="app.diagrams.net" modified="2021-12-08T16:57:00.142Z" agent="5.0 (Windows NT 10.0; Win64; x64) AppleWebKit/537.36 (KHTML, like Gecko) Chrome/96.0.4664.93 Safari/537.36" etag="ZjE5n2s7S2TNY9zNDvPg" version="15.8.7" type="github">
  <diagram id="xtEXS91BvRHKZnzekccI" name="Page-1">
    <mxGraphModel dx="4272" dy="2124" grid="0" gridSize="10" guides="1" tooltips="1" connect="1" arrows="1" fold="1" page="0" pageScale="1" pageWidth="850" pageHeight="1100" math="0" shadow="0">
      <root>
        <mxCell id="0" />
        <mxCell id="1" parent="0" />
        <mxCell id="xAkv2eFlPh6bL9jDl5cc-2" value="" style="rounded=0;whiteSpace=wrap;html=1;fontSize=14;" vertex="1" parent="1">
          <mxGeometry x="-570" y="-240" width="1310" height="840" as="geometry" />
        </mxCell>
        <mxCell id="xAkv2eFlPh6bL9jDl5cc-3" value="" style="rounded=0;whiteSpace=wrap;html=1;fillColor=#dae8fc;strokeColor=#6c8ebf;" vertex="1" parent="1">
          <mxGeometry x="-540" y="-210" width="1242" height="780" as="geometry" />
        </mxCell>
        <mxCell id="xAkv2eFlPh6bL9jDl5cc-4" style="edgeStyle=orthogonalEdgeStyle;rounded=0;orthogonalLoop=1;jettySize=auto;html=1;entryX=0.25;entryY=0;entryDx=0;entryDy=0;exitX=0.5;exitY=1;exitDx=0;exitDy=0;" edge="1" parent="1" source="xAkv2eFlPh6bL9jDl5cc-5" target="xAkv2eFlPh6bL9jDl5cc-9">
          <mxGeometry relative="1" as="geometry">
            <Array as="points">
              <mxPoint x="120" y="-5" />
            </Array>
          </mxGeometry>
        </mxCell>
        <mxCell id="xAkv2eFlPh6bL9jDl5cc-5" value="Remote Control" style="rounded=0;whiteSpace=wrap;html=1;fontSize=18;fillColor=#FFFFFF;strokeColor=#d79b00;" vertex="1" parent="1">
          <mxGeometry x="-24" y="-160" width="290" height="100" as="geometry" />
        </mxCell>
        <mxCell id="xAkv2eFlPh6bL9jDl5cc-6" style="edgeStyle=orthogonalEdgeStyle;rounded=0;orthogonalLoop=1;jettySize=auto;html=1;exitX=1;exitY=0.5;exitDx=0;exitDy=0;entryX=-0.007;entryY=0.542;entryDx=0;entryDy=0;entryPerimeter=0;" edge="1" parent="1" source="xAkv2eFlPh6bL9jDl5cc-8" target="xAkv2eFlPh6bL9jDl5cc-9">
          <mxGeometry relative="1" as="geometry" />
        </mxCell>
        <mxCell id="xAkv2eFlPh6bL9jDl5cc-7" style="edgeStyle=orthogonalEdgeStyle;rounded=0;orthogonalLoop=1;jettySize=auto;html=1;entryX=0;entryY=0.5;entryDx=0;entryDy=0;exitX=0.5;exitY=1;exitDx=0;exitDy=0;" edge="1" parent="1" source="xAkv2eFlPh6bL9jDl5cc-8" target="xAkv2eFlPh6bL9jDl5cc-12">
          <mxGeometry relative="1" as="geometry" />
        </mxCell>
        <mxCell id="xAkv2eFlPh6bL9jDl5cc-8" value="Power" style="rounded=0;whiteSpace=wrap;html=1;fontSize=18;fillColor=#FFFFFF;strokeColor=#d79b00;" vertex="1" parent="1">
          <mxGeometry x="-515" y="118" width="290" height="100" as="geometry" />
        </mxCell>
        <mxCell id="xAkv2eFlPh6bL9jDl5cc-9" value="Main Controls" style="rounded=0;whiteSpace=wrap;html=1;fontSize=18;fillColor=#FFFFFF;strokeColor=#d79b00;" vertex="1" parent="1">
          <mxGeometry x="-40" y="50" width="640" height="220" as="geometry" />
        </mxCell>
        <mxCell id="xAkv2eFlPh6bL9jDl5cc-10" style="edgeStyle=orthogonalEdgeStyle;rounded=0;orthogonalLoop=1;jettySize=auto;html=1;exitX=0.5;exitY=1;exitDx=0;exitDy=0;entryX=0.774;entryY=-0.005;entryDx=0;entryDy=0;entryPerimeter=0;" edge="1" parent="1" source="xAkv2eFlPh6bL9jDl5cc-11" target="xAkv2eFlPh6bL9jDl5cc-9">
          <mxGeometry relative="1" as="geometry" />
        </mxCell>
        <mxCell id="xAkv2eFlPh6bL9jDl5cc-11" value="Computer Vision" style="rounded=0;whiteSpace=wrap;html=1;fontSize=18;fillColor=#FFFFFF;strokeColor=#d79b00;" vertex="1" parent="1">
          <mxGeometry x="310" y="-160" width="290" height="100" as="geometry" />
        </mxCell>
        <mxCell id="xAkv2eFlPh6bL9jDl5cc-12" value="Wheels &amp;amp; Turning" style="rounded=0;whiteSpace=wrap;html=1;fontSize=18;fillColor=#FFFFFF;strokeColor=#d79b00;" vertex="1" parent="1">
          <mxGeometry x="-30" y="390" width="290" height="100" as="geometry" />
        </mxCell>
        <mxCell id="xAkv2eFlPh6bL9jDl5cc-13" style="edgeStyle=orthogonalEdgeStyle;rounded=0;orthogonalLoop=1;jettySize=auto;html=1;entryX=1;entryY=0.5;entryDx=0;entryDy=0;" edge="1" parent="1" source="xAkv2eFlPh6bL9jDl5cc-14" target="xAkv2eFlPh6bL9jDl5cc-11">
          <mxGeometry relative="1" as="geometry">
            <Array as="points">
              <mxPoint x="660" y="440" />
              <mxPoint x="660" y="-110" />
            </Array>
          </mxGeometry>
        </mxCell>
        <mxCell id="xAkv2eFlPh6bL9jDl5cc-14" value="HMI" style="rounded=0;whiteSpace=wrap;html=1;fontSize=18;fillColor=#FFFFFF;strokeColor=#d79b00;" vertex="1" parent="1">
          <mxGeometry x="310" y="390" width="290" height="100" as="geometry" />
        </mxCell>
        <mxCell id="xAkv2eFlPh6bL9jDl5cc-15" value="" style="endArrow=classic;startArrow=classic;html=1;rounded=0;exitX=0.5;exitY=0;exitDx=0;exitDy=0;" edge="1" parent="1" source="xAkv2eFlPh6bL9jDl5cc-12">
          <mxGeometry width="50" height="50" relative="1" as="geometry">
            <mxPoint x="60" y="280" as="sourcePoint" />
            <mxPoint x="115" y="270" as="targetPoint" />
          </mxGeometry>
        </mxCell>
        <mxCell id="xAkv2eFlPh6bL9jDl5cc-16" value="" style="endArrow=classic;startArrow=classic;html=1;rounded=0;exitX=0.5;exitY=0;exitDx=0;exitDy=0;" edge="1" parent="1" source="xAkv2eFlPh6bL9jDl5cc-14">
          <mxGeometry width="50" height="50" relative="1" as="geometry">
            <mxPoint x="125" y="400" as="sourcePoint" />
            <mxPoint x="455" y="270" as="targetPoint" />
          </mxGeometry>
        </mxCell>
        <mxCell id="xAkv2eFlPh6bL9jDl5cc-17" value="" style="endArrow=classic;html=1;rounded=0;entryX=0.5;entryY=1;entryDx=0;entryDy=0;" edge="1" parent="1" target="xAkv2eFlPh6bL9jDl5cc-14">
          <mxGeometry width="50" height="50" relative="1" as="geometry">
            <mxPoint x="-370" y="440" as="sourcePoint" />
            <mxPoint x="-220" y="460" as="targetPoint" />
            <Array as="points">
              <mxPoint x="-370" y="540" />
              <mxPoint x="455" y="540" />
            </Array>
          </mxGeometry>
        </mxCell>
      </root>
    </mxGraphModel>
  </diagram>
</mxfile>
